<mxfile host="Electron" agent="Mozilla/5.0 (Windows NT 10.0; Win64; x64) AppleWebKit/537.36 (KHTML, like Gecko) draw.io/26.2.15 Chrome/134.0.6998.205 Electron/35.2.1 Safari/537.36" version="26.2.15">
  <diagram name="Page-1" id="2Z8zptUPEVUKlr7mN79J">
    <mxGraphModel dx="2066" dy="1209" grid="1" gridSize="10" guides="1" tooltips="1" connect="1" arrows="1" fold="1" page="1" pageScale="1" pageWidth="827" pageHeight="1169" math="0" shadow="0">
      <root>
        <mxCell id="0" />
        <mxCell id="1" parent="0" />
        <mxCell id="5JnU1e6QbsHb9adtHN5f-72" value="" style="shape=table;startSize=0;container=1;collapsible=0;childLayout=tableLayout;" vertex="1" parent="1">
          <mxGeometry x="40" y="130" width="950" height="400" as="geometry" />
        </mxCell>
        <mxCell id="5JnU1e6QbsHb9adtHN5f-73" value="" style="shape=tableRow;horizontal=0;startSize=0;swimlaneHead=0;swimlaneBody=0;strokeColor=inherit;top=0;left=0;bottom=0;right=0;collapsible=0;dropTarget=0;fillColor=none;points=[[0,0.5],[1,0.5]];portConstraint=eastwest;" vertex="1" parent="5JnU1e6QbsHb9adtHN5f-72">
          <mxGeometry width="950" height="50" as="geometry" />
        </mxCell>
        <mxCell id="5JnU1e6QbsHb9adtHN5f-74" value="" style="shape=partialRectangle;html=1;whiteSpace=wrap;connectable=0;strokeColor=inherit;overflow=hidden;fillColor=none;top=0;left=0;bottom=0;right=0;pointerEvents=1;" vertex="1" parent="5JnU1e6QbsHb9adtHN5f-73">
          <mxGeometry width="136" height="50" as="geometry">
            <mxRectangle width="136" height="50" as="alternateBounds" />
          </mxGeometry>
        </mxCell>
        <mxCell id="5JnU1e6QbsHb9adtHN5f-75" value="Продажи через кол-центр" style="shape=partialRectangle;html=1;whiteSpace=wrap;connectable=0;strokeColor=inherit;overflow=hidden;fillColor=none;top=0;left=0;bottom=0;right=0;pointerEvents=1;" vertex="1" parent="5JnU1e6QbsHb9adtHN5f-73">
          <mxGeometry x="136" width="135" height="50" as="geometry">
            <mxRectangle width="135" height="50" as="alternateBounds" />
          </mxGeometry>
        </mxCell>
        <mxCell id="5JnU1e6QbsHb9adtHN5f-76" value="Продажи в сети отделений" style="shape=partialRectangle;html=1;whiteSpace=wrap;connectable=0;strokeColor=inherit;overflow=hidden;fillColor=none;top=0;left=0;bottom=0;right=0;pointerEvents=1;" vertex="1" parent="5JnU1e6QbsHb9adtHN5f-73">
          <mxGeometry x="271" width="136" height="50" as="geometry">
            <mxRectangle width="136" height="50" as="alternateBounds" />
          </mxGeometry>
        </mxCell>
        <mxCell id="5JnU1e6QbsHb9adtHN5f-77" value="Digital-оповещения клиентов" style="shape=partialRectangle;html=1;whiteSpace=wrap;connectable=0;strokeColor=inherit;overflow=hidden;fillColor=none;top=0;left=0;bottom=0;right=0;pointerEvents=1;" vertex="1" parent="5JnU1e6QbsHb9adtHN5f-73">
          <mxGeometry x="407" width="136" height="50" as="geometry">
            <mxRectangle width="136" height="50" as="alternateBounds" />
          </mxGeometry>
        </mxCell>
        <mxCell id="5JnU1e6QbsHb9adtHN5f-78" value="Обслуживание депозитных процессов" style="shape=partialRectangle;html=1;whiteSpace=wrap;connectable=0;strokeColor=inherit;overflow=hidden;fillColor=none;top=0;left=0;bottom=0;right=0;pointerEvents=1;" vertex="1" parent="5JnU1e6QbsHb9adtHN5f-73">
          <mxGeometry x="543" width="136" height="50" as="geometry">
            <mxRectangle width="136" height="50" as="alternateBounds" />
          </mxGeometry>
        </mxCell>
        <mxCell id="5JnU1e6QbsHb9adtHN5f-79" value="Обслуживание кредитных процессов" style="shape=partialRectangle;html=1;whiteSpace=wrap;connectable=0;strokeColor=inherit;overflow=hidden;fillColor=none;top=0;left=0;bottom=0;right=0;pointerEvents=1;" vertex="1" parent="5JnU1e6QbsHb9adtHN5f-73">
          <mxGeometry x="679" width="135" height="50" as="geometry">
            <mxRectangle width="135" height="50" as="alternateBounds" />
          </mxGeometry>
        </mxCell>
        <mxCell id="5JnU1e6QbsHb9adtHN5f-80" value="Управление договорами" style="shape=partialRectangle;html=1;whiteSpace=wrap;connectable=0;strokeColor=inherit;overflow=hidden;fillColor=none;top=0;left=0;bottom=0;right=0;pointerEvents=1;" vertex="1" parent="5JnU1e6QbsHb9adtHN5f-73">
          <mxGeometry x="814" width="136" height="50" as="geometry">
            <mxRectangle width="136" height="50" as="alternateBounds" />
          </mxGeometry>
        </mxCell>
        <mxCell id="5JnU1e6QbsHb9adtHN5f-81" value="" style="shape=tableRow;horizontal=0;startSize=0;swimlaneHead=0;swimlaneBody=0;strokeColor=inherit;top=0;left=0;bottom=0;right=0;collapsible=0;dropTarget=0;fillColor=none;points=[[0,0.5],[1,0.5]];portConstraint=eastwest;" vertex="1" parent="5JnU1e6QbsHb9adtHN5f-72">
          <mxGeometry y="50" width="950" height="50" as="geometry" />
        </mxCell>
        <mxCell id="5JnU1e6QbsHb9adtHN5f-82" value="&lt;span style=&quot;box-sizing: inherit; color: rgba(0, 0, 0, 0.85); font-family: &amp;quot;YS Text&amp;quot;, sans-serif; text-align: left; white-space-collapse: preserve-breaks; background-color: rgb(255, 255, 255);&quot;&gt;&lt;font style=&quot;&quot;&gt;Управление обслуживанием в сети отделений&lt;/font&gt;&lt;/span&gt;" style="shape=partialRectangle;html=1;whiteSpace=wrap;connectable=0;strokeColor=inherit;overflow=hidden;fillColor=none;top=0;left=0;bottom=0;right=0;pointerEvents=1;" vertex="1" parent="5JnU1e6QbsHb9adtHN5f-81">
          <mxGeometry width="136" height="50" as="geometry">
            <mxRectangle width="136" height="50" as="alternateBounds" />
          </mxGeometry>
        </mxCell>
        <mxCell id="5JnU1e6QbsHb9adtHN5f-83" value="" style="shape=partialRectangle;html=1;whiteSpace=wrap;connectable=0;strokeColor=inherit;overflow=hidden;fillColor=none;top=0;left=0;bottom=0;right=0;pointerEvents=1;" vertex="1" parent="5JnU1e6QbsHb9adtHN5f-81">
          <mxGeometry x="136" width="135" height="50" as="geometry">
            <mxRectangle width="135" height="50" as="alternateBounds" />
          </mxGeometry>
        </mxCell>
        <mxCell id="5JnU1e6QbsHb9adtHN5f-84" value="" style="shape=partialRectangle;html=1;whiteSpace=wrap;connectable=0;strokeColor=inherit;overflow=hidden;fillColor=none;top=0;left=0;bottom=0;right=0;pointerEvents=1;" vertex="1" parent="5JnU1e6QbsHb9adtHN5f-81">
          <mxGeometry x="271" width="136" height="50" as="geometry">
            <mxRectangle width="136" height="50" as="alternateBounds" />
          </mxGeometry>
        </mxCell>
        <mxCell id="5JnU1e6QbsHb9adtHN5f-85" value="" style="shape=partialRectangle;html=1;whiteSpace=wrap;connectable=0;strokeColor=inherit;overflow=hidden;fillColor=none;top=0;left=0;bottom=0;right=0;pointerEvents=1;" vertex="1" parent="5JnU1e6QbsHb9adtHN5f-81">
          <mxGeometry x="407" width="136" height="50" as="geometry">
            <mxRectangle width="136" height="50" as="alternateBounds" />
          </mxGeometry>
        </mxCell>
        <mxCell id="5JnU1e6QbsHb9adtHN5f-86" value="" style="shape=partialRectangle;html=1;whiteSpace=wrap;connectable=0;strokeColor=inherit;overflow=hidden;fillColor=none;top=0;left=0;bottom=0;right=0;pointerEvents=1;" vertex="1" parent="5JnU1e6QbsHb9adtHN5f-81">
          <mxGeometry x="543" width="136" height="50" as="geometry">
            <mxRectangle width="136" height="50" as="alternateBounds" />
          </mxGeometry>
        </mxCell>
        <mxCell id="5JnU1e6QbsHb9adtHN5f-87" value="" style="shape=partialRectangle;html=1;whiteSpace=wrap;connectable=0;strokeColor=inherit;overflow=hidden;fillColor=none;top=0;left=0;bottom=0;right=0;pointerEvents=1;" vertex="1" parent="5JnU1e6QbsHb9adtHN5f-81">
          <mxGeometry x="679" width="135" height="50" as="geometry">
            <mxRectangle width="135" height="50" as="alternateBounds" />
          </mxGeometry>
        </mxCell>
        <mxCell id="5JnU1e6QbsHb9adtHN5f-88" value="" style="shape=partialRectangle;html=1;whiteSpace=wrap;connectable=0;strokeColor=inherit;overflow=hidden;fillColor=none;top=0;left=0;bottom=0;right=0;pointerEvents=1;" vertex="1" parent="5JnU1e6QbsHb9adtHN5f-81">
          <mxGeometry x="814" width="136" height="50" as="geometry">
            <mxRectangle width="136" height="50" as="alternateBounds" />
          </mxGeometry>
        </mxCell>
        <mxCell id="5JnU1e6QbsHb9adtHN5f-89" value="" style="shape=tableRow;horizontal=0;startSize=0;swimlaneHead=0;swimlaneBody=0;strokeColor=inherit;top=0;left=0;bottom=0;right=0;collapsible=0;dropTarget=0;fillColor=none;points=[[0,0.5],[1,0.5]];portConstraint=eastwest;" vertex="1" parent="5JnU1e6QbsHb9adtHN5f-72">
          <mxGeometry y="100" width="950" height="50" as="geometry" />
        </mxCell>
        <mxCell id="5JnU1e6QbsHb9adtHN5f-90" value="&lt;font&gt;&lt;span style=&quot;box-sizing: inherit; color: rgba(0, 0, 0, 0.85); font-family: &amp;quot;YS Text&amp;quot;, sans-serif; font-style: normal; font-variant-ligatures: normal; font-variant-caps: normal; letter-spacing: normal; orphans: 2; text-align: left; text-indent: 0px; text-transform: none; widows: 2; word-spacing: 0px; -webkit-text-stroke-width: 0px; white-space: pre-line; background-color: rgb(255, 255, 255); text-decoration-thickness: initial; text-decoration-style: initial; text-decoration-color: initial;&quot;&gt;Управление IT&lt;/span&gt;&lt;br&gt;&lt;/font&gt;" style="shape=partialRectangle;html=1;whiteSpace=wrap;connectable=0;strokeColor=inherit;overflow=hidden;fillColor=none;top=0;left=0;bottom=0;right=0;pointerEvents=1;" vertex="1" parent="5JnU1e6QbsHb9adtHN5f-89">
          <mxGeometry width="136" height="50" as="geometry">
            <mxRectangle width="136" height="50" as="alternateBounds" />
          </mxGeometry>
        </mxCell>
        <mxCell id="5JnU1e6QbsHb9adtHN5f-91" value="" style="shape=partialRectangle;html=1;whiteSpace=wrap;connectable=0;strokeColor=inherit;overflow=hidden;fillColor=none;top=0;left=0;bottom=0;right=0;pointerEvents=1;" vertex="1" parent="5JnU1e6QbsHb9adtHN5f-89">
          <mxGeometry x="136" width="135" height="50" as="geometry">
            <mxRectangle width="135" height="50" as="alternateBounds" />
          </mxGeometry>
        </mxCell>
        <mxCell id="5JnU1e6QbsHb9adtHN5f-92" value="" style="shape=partialRectangle;html=1;whiteSpace=wrap;connectable=0;strokeColor=inherit;overflow=hidden;fillColor=none;top=0;left=0;bottom=0;right=0;pointerEvents=1;" vertex="1" parent="5JnU1e6QbsHb9adtHN5f-89">
          <mxGeometry x="271" width="136" height="50" as="geometry">
            <mxRectangle width="136" height="50" as="alternateBounds" />
          </mxGeometry>
        </mxCell>
        <mxCell id="5JnU1e6QbsHb9adtHN5f-93" value="" style="shape=partialRectangle;html=1;whiteSpace=wrap;connectable=0;strokeColor=inherit;overflow=hidden;fillColor=none;top=0;left=0;bottom=0;right=0;pointerEvents=1;" vertex="1" parent="5JnU1e6QbsHb9adtHN5f-89">
          <mxGeometry x="407" width="136" height="50" as="geometry">
            <mxRectangle width="136" height="50" as="alternateBounds" />
          </mxGeometry>
        </mxCell>
        <mxCell id="5JnU1e6QbsHb9adtHN5f-94" value="" style="shape=partialRectangle;html=1;whiteSpace=wrap;connectable=0;strokeColor=inherit;overflow=hidden;fillColor=none;top=0;left=0;bottom=0;right=0;pointerEvents=1;" vertex="1" parent="5JnU1e6QbsHb9adtHN5f-89">
          <mxGeometry x="543" width="136" height="50" as="geometry">
            <mxRectangle width="136" height="50" as="alternateBounds" />
          </mxGeometry>
        </mxCell>
        <mxCell id="5JnU1e6QbsHb9adtHN5f-95" value="" style="shape=partialRectangle;html=1;whiteSpace=wrap;connectable=0;strokeColor=inherit;overflow=hidden;fillColor=none;top=0;left=0;bottom=0;right=0;pointerEvents=1;" vertex="1" parent="5JnU1e6QbsHb9adtHN5f-89">
          <mxGeometry x="679" width="135" height="50" as="geometry">
            <mxRectangle width="135" height="50" as="alternateBounds" />
          </mxGeometry>
        </mxCell>
        <mxCell id="5JnU1e6QbsHb9adtHN5f-96" value="" style="shape=partialRectangle;html=1;whiteSpace=wrap;connectable=0;strokeColor=inherit;overflow=hidden;fillColor=none;top=0;left=0;bottom=0;right=0;pointerEvents=1;" vertex="1" parent="5JnU1e6QbsHb9adtHN5f-89">
          <mxGeometry x="814" width="136" height="50" as="geometry">
            <mxRectangle width="136" height="50" as="alternateBounds" />
          </mxGeometry>
        </mxCell>
        <mxCell id="5JnU1e6QbsHb9adtHN5f-97" value="" style="shape=tableRow;horizontal=0;startSize=0;swimlaneHead=0;swimlaneBody=0;strokeColor=inherit;top=0;left=0;bottom=0;right=0;collapsible=0;dropTarget=0;fillColor=none;points=[[0,0.5],[1,0.5]];portConstraint=eastwest;" vertex="1" parent="5JnU1e6QbsHb9adtHN5f-72">
          <mxGeometry y="150" width="950" height="50" as="geometry" />
        </mxCell>
        <mxCell id="5JnU1e6QbsHb9adtHN5f-98" value="&lt;span style=&quot;box-sizing: inherit; color: rgba(0, 0, 0, 0.85); font-family: &amp;quot;YS Text&amp;quot;, sans-serif; text-align: left; white-space-collapse: preserve-breaks; background-color: rgb(255, 255, 255);&quot;&gt;&lt;font style=&quot;&quot;&gt;Управление обслуживанием депозитных продуктов&lt;/font&gt;&lt;/span&gt;" style="shape=partialRectangle;html=1;whiteSpace=wrap;connectable=0;strokeColor=inherit;overflow=hidden;fillColor=none;top=0;left=0;bottom=0;right=0;pointerEvents=1;" vertex="1" parent="5JnU1e6QbsHb9adtHN5f-97">
          <mxGeometry width="136" height="50" as="geometry">
            <mxRectangle width="136" height="50" as="alternateBounds" />
          </mxGeometry>
        </mxCell>
        <mxCell id="5JnU1e6QbsHb9adtHN5f-99" value="" style="shape=partialRectangle;html=1;whiteSpace=wrap;connectable=0;strokeColor=inherit;overflow=hidden;fillColor=none;top=0;left=0;bottom=0;right=0;pointerEvents=1;" vertex="1" parent="5JnU1e6QbsHb9adtHN5f-97">
          <mxGeometry x="136" width="135" height="50" as="geometry">
            <mxRectangle width="135" height="50" as="alternateBounds" />
          </mxGeometry>
        </mxCell>
        <mxCell id="5JnU1e6QbsHb9adtHN5f-100" value="" style="shape=partialRectangle;html=1;whiteSpace=wrap;connectable=0;strokeColor=inherit;overflow=hidden;fillColor=none;top=0;left=0;bottom=0;right=0;pointerEvents=1;" vertex="1" parent="5JnU1e6QbsHb9adtHN5f-97">
          <mxGeometry x="271" width="136" height="50" as="geometry">
            <mxRectangle width="136" height="50" as="alternateBounds" />
          </mxGeometry>
        </mxCell>
        <mxCell id="5JnU1e6QbsHb9adtHN5f-101" value="" style="shape=partialRectangle;html=1;whiteSpace=wrap;connectable=0;strokeColor=inherit;overflow=hidden;fillColor=none;top=0;left=0;bottom=0;right=0;pointerEvents=1;" vertex="1" parent="5JnU1e6QbsHb9adtHN5f-97">
          <mxGeometry x="407" width="136" height="50" as="geometry">
            <mxRectangle width="136" height="50" as="alternateBounds" />
          </mxGeometry>
        </mxCell>
        <mxCell id="5JnU1e6QbsHb9adtHN5f-102" value="" style="shape=partialRectangle;html=1;whiteSpace=wrap;connectable=0;strokeColor=inherit;overflow=hidden;fillColor=none;top=0;left=0;bottom=0;right=0;pointerEvents=1;" vertex="1" parent="5JnU1e6QbsHb9adtHN5f-97">
          <mxGeometry x="543" width="136" height="50" as="geometry">
            <mxRectangle width="136" height="50" as="alternateBounds" />
          </mxGeometry>
        </mxCell>
        <mxCell id="5JnU1e6QbsHb9adtHN5f-103" value="" style="shape=partialRectangle;html=1;whiteSpace=wrap;connectable=0;strokeColor=inherit;overflow=hidden;fillColor=none;top=0;left=0;bottom=0;right=0;pointerEvents=1;" vertex="1" parent="5JnU1e6QbsHb9adtHN5f-97">
          <mxGeometry x="679" width="135" height="50" as="geometry">
            <mxRectangle width="135" height="50" as="alternateBounds" />
          </mxGeometry>
        </mxCell>
        <mxCell id="5JnU1e6QbsHb9adtHN5f-104" value="" style="shape=partialRectangle;html=1;whiteSpace=wrap;connectable=0;strokeColor=inherit;overflow=hidden;fillColor=none;top=0;left=0;bottom=0;right=0;pointerEvents=1;" vertex="1" parent="5JnU1e6QbsHb9adtHN5f-97">
          <mxGeometry x="814" width="136" height="50" as="geometry">
            <mxRectangle width="136" height="50" as="alternateBounds" />
          </mxGeometry>
        </mxCell>
        <mxCell id="5JnU1e6QbsHb9adtHN5f-105" value="" style="shape=tableRow;horizontal=0;startSize=0;swimlaneHead=0;swimlaneBody=0;strokeColor=inherit;top=0;left=0;bottom=0;right=0;collapsible=0;dropTarget=0;fillColor=none;points=[[0,0.5],[1,0.5]];portConstraint=eastwest;" vertex="1" parent="5JnU1e6QbsHb9adtHN5f-72">
          <mxGeometry y="200" width="950" height="50" as="geometry" />
        </mxCell>
        <mxCell id="5JnU1e6QbsHb9adtHN5f-106" value="&lt;span style=&quot;box-sizing: inherit; color: rgba(0, 0, 0, 0.85); font-family: &amp;quot;YS Text&amp;quot;, sans-serif; text-align: left; white-space-collapse: preserve-breaks; background-color: rgb(255, 255, 255);&quot;&gt;&lt;font style=&quot;&quot;&gt;Управление обслуживанием кредитных продуктов&lt;/font&gt;&lt;/span&gt;" style="shape=partialRectangle;html=1;whiteSpace=wrap;connectable=0;strokeColor=inherit;overflow=hidden;fillColor=none;top=0;left=0;bottom=0;right=0;pointerEvents=1;" vertex="1" parent="5JnU1e6QbsHb9adtHN5f-105">
          <mxGeometry width="136" height="50" as="geometry">
            <mxRectangle width="136" height="50" as="alternateBounds" />
          </mxGeometry>
        </mxCell>
        <mxCell id="5JnU1e6QbsHb9adtHN5f-107" value="" style="shape=partialRectangle;html=1;whiteSpace=wrap;connectable=0;strokeColor=inherit;overflow=hidden;fillColor=none;top=0;left=0;bottom=0;right=0;pointerEvents=1;" vertex="1" parent="5JnU1e6QbsHb9adtHN5f-105">
          <mxGeometry x="136" width="135" height="50" as="geometry">
            <mxRectangle width="135" height="50" as="alternateBounds" />
          </mxGeometry>
        </mxCell>
        <mxCell id="5JnU1e6QbsHb9adtHN5f-108" value="" style="shape=partialRectangle;html=1;whiteSpace=wrap;connectable=0;strokeColor=inherit;overflow=hidden;fillColor=none;top=0;left=0;bottom=0;right=0;pointerEvents=1;" vertex="1" parent="5JnU1e6QbsHb9adtHN5f-105">
          <mxGeometry x="271" width="136" height="50" as="geometry">
            <mxRectangle width="136" height="50" as="alternateBounds" />
          </mxGeometry>
        </mxCell>
        <mxCell id="5JnU1e6QbsHb9adtHN5f-109" value="" style="shape=partialRectangle;html=1;whiteSpace=wrap;connectable=0;strokeColor=inherit;overflow=hidden;fillColor=none;top=0;left=0;bottom=0;right=0;pointerEvents=1;" vertex="1" parent="5JnU1e6QbsHb9adtHN5f-105">
          <mxGeometry x="407" width="136" height="50" as="geometry">
            <mxRectangle width="136" height="50" as="alternateBounds" />
          </mxGeometry>
        </mxCell>
        <mxCell id="5JnU1e6QbsHb9adtHN5f-110" value="" style="shape=partialRectangle;html=1;whiteSpace=wrap;connectable=0;strokeColor=inherit;overflow=hidden;fillColor=none;top=0;left=0;bottom=0;right=0;pointerEvents=1;" vertex="1" parent="5JnU1e6QbsHb9adtHN5f-105">
          <mxGeometry x="543" width="136" height="50" as="geometry">
            <mxRectangle width="136" height="50" as="alternateBounds" />
          </mxGeometry>
        </mxCell>
        <mxCell id="5JnU1e6QbsHb9adtHN5f-111" value="" style="shape=partialRectangle;html=1;whiteSpace=wrap;connectable=0;strokeColor=inherit;overflow=hidden;fillColor=none;top=0;left=0;bottom=0;right=0;pointerEvents=1;" vertex="1" parent="5JnU1e6QbsHb9adtHN5f-105">
          <mxGeometry x="679" width="135" height="50" as="geometry">
            <mxRectangle width="135" height="50" as="alternateBounds" />
          </mxGeometry>
        </mxCell>
        <mxCell id="5JnU1e6QbsHb9adtHN5f-112" value="" style="shape=partialRectangle;html=1;whiteSpace=wrap;connectable=0;strokeColor=inherit;overflow=hidden;fillColor=none;top=0;left=0;bottom=0;right=0;pointerEvents=1;" vertex="1" parent="5JnU1e6QbsHb9adtHN5f-105">
          <mxGeometry x="814" width="136" height="50" as="geometry">
            <mxRectangle width="136" height="50" as="alternateBounds" />
          </mxGeometry>
        </mxCell>
        <mxCell id="5JnU1e6QbsHb9adtHN5f-113" value="" style="shape=tableRow;horizontal=0;startSize=0;swimlaneHead=0;swimlaneBody=0;strokeColor=inherit;top=0;left=0;bottom=0;right=0;collapsible=0;dropTarget=0;fillColor=none;points=[[0,0.5],[1,0.5]];portConstraint=eastwest;" vertex="1" parent="5JnU1e6QbsHb9adtHN5f-72">
          <mxGeometry y="250" width="950" height="50" as="geometry" />
        </mxCell>
        <mxCell id="5JnU1e6QbsHb9adtHN5f-114" value="&lt;span style=&quot;box-sizing: inherit; color: rgba(0, 0, 0, 0.85); font-family: &amp;quot;YS Text&amp;quot;, sans-serif; text-align: left; white-space-collapse: preserve-breaks; background-color: rgb(255, 255, 255);&quot;&gt;&lt;font style=&quot;&quot;&gt;Команда цифровой трансформации розничного бизнеса&lt;/font&gt;&lt;/span&gt;" style="shape=partialRectangle;html=1;whiteSpace=wrap;connectable=0;strokeColor=inherit;overflow=hidden;fillColor=none;top=0;left=0;bottom=0;right=0;pointerEvents=1;" vertex="1" parent="5JnU1e6QbsHb9adtHN5f-113">
          <mxGeometry width="136" height="50" as="geometry">
            <mxRectangle width="136" height="50" as="alternateBounds" />
          </mxGeometry>
        </mxCell>
        <mxCell id="5JnU1e6QbsHb9adtHN5f-115" value="" style="shape=partialRectangle;html=1;whiteSpace=wrap;connectable=0;strokeColor=inherit;overflow=hidden;fillColor=none;top=0;left=0;bottom=0;right=0;pointerEvents=1;" vertex="1" parent="5JnU1e6QbsHb9adtHN5f-113">
          <mxGeometry x="136" width="135" height="50" as="geometry">
            <mxRectangle width="135" height="50" as="alternateBounds" />
          </mxGeometry>
        </mxCell>
        <mxCell id="5JnU1e6QbsHb9adtHN5f-116" value="" style="shape=partialRectangle;html=1;whiteSpace=wrap;connectable=0;strokeColor=inherit;overflow=hidden;fillColor=none;top=0;left=0;bottom=0;right=0;pointerEvents=1;" vertex="1" parent="5JnU1e6QbsHb9adtHN5f-113">
          <mxGeometry x="271" width="136" height="50" as="geometry">
            <mxRectangle width="136" height="50" as="alternateBounds" />
          </mxGeometry>
        </mxCell>
        <mxCell id="5JnU1e6QbsHb9adtHN5f-117" value="" style="shape=partialRectangle;html=1;whiteSpace=wrap;connectable=0;strokeColor=inherit;overflow=hidden;fillColor=none;top=0;left=0;bottom=0;right=0;pointerEvents=1;" vertex="1" parent="5JnU1e6QbsHb9adtHN5f-113">
          <mxGeometry x="407" width="136" height="50" as="geometry">
            <mxRectangle width="136" height="50" as="alternateBounds" />
          </mxGeometry>
        </mxCell>
        <mxCell id="5JnU1e6QbsHb9adtHN5f-118" value="" style="shape=partialRectangle;html=1;whiteSpace=wrap;connectable=0;strokeColor=inherit;overflow=hidden;fillColor=none;top=0;left=0;bottom=0;right=0;pointerEvents=1;" vertex="1" parent="5JnU1e6QbsHb9adtHN5f-113">
          <mxGeometry x="543" width="136" height="50" as="geometry">
            <mxRectangle width="136" height="50" as="alternateBounds" />
          </mxGeometry>
        </mxCell>
        <mxCell id="5JnU1e6QbsHb9adtHN5f-119" value="" style="shape=partialRectangle;html=1;whiteSpace=wrap;connectable=0;strokeColor=inherit;overflow=hidden;fillColor=none;top=0;left=0;bottom=0;right=0;pointerEvents=1;" vertex="1" parent="5JnU1e6QbsHb9adtHN5f-113">
          <mxGeometry x="679" width="135" height="50" as="geometry">
            <mxRectangle width="135" height="50" as="alternateBounds" />
          </mxGeometry>
        </mxCell>
        <mxCell id="5JnU1e6QbsHb9adtHN5f-120" value="" style="shape=partialRectangle;html=1;whiteSpace=wrap;connectable=0;strokeColor=inherit;overflow=hidden;fillColor=none;top=0;left=0;bottom=0;right=0;pointerEvents=1;" vertex="1" parent="5JnU1e6QbsHb9adtHN5f-113">
          <mxGeometry x="814" width="136" height="50" as="geometry">
            <mxRectangle width="136" height="50" as="alternateBounds" />
          </mxGeometry>
        </mxCell>
        <mxCell id="5JnU1e6QbsHb9adtHN5f-121" value="" style="shape=tableRow;horizontal=0;startSize=0;swimlaneHead=0;swimlaneBody=0;strokeColor=inherit;top=0;left=0;bottom=0;right=0;collapsible=0;dropTarget=0;fillColor=none;points=[[0,0.5],[1,0.5]];portConstraint=eastwest;" vertex="1" parent="5JnU1e6QbsHb9adtHN5f-72">
          <mxGeometry y="300" width="950" height="50" as="geometry" />
        </mxCell>
        <mxCell id="5JnU1e6QbsHb9adtHN5f-122" value="&lt;span style=&quot;box-sizing: inherit; color: rgba(0, 0, 0, 0.85); font-family: &amp;quot;YS Text&amp;quot;, sans-serif; white-space-collapse: preserve-breaks; background-color: rgb(255, 255, 255);&quot;&gt;&lt;font&gt;Кол-центр банка «Стандарт»&lt;/font&gt;&lt;/span&gt;" style="shape=partialRectangle;html=1;whiteSpace=wrap;connectable=0;strokeColor=inherit;overflow=hidden;fillColor=none;top=0;left=0;bottom=0;right=0;pointerEvents=1;align=center;" vertex="1" parent="5JnU1e6QbsHb9adtHN5f-121">
          <mxGeometry width="136" height="50" as="geometry">
            <mxRectangle width="136" height="50" as="alternateBounds" />
          </mxGeometry>
        </mxCell>
        <mxCell id="5JnU1e6QbsHb9adtHN5f-123" value="" style="shape=partialRectangle;html=1;whiteSpace=wrap;connectable=0;strokeColor=inherit;overflow=hidden;fillColor=none;top=0;left=0;bottom=0;right=0;pointerEvents=1;" vertex="1" parent="5JnU1e6QbsHb9adtHN5f-121">
          <mxGeometry x="136" width="135" height="50" as="geometry">
            <mxRectangle width="135" height="50" as="alternateBounds" />
          </mxGeometry>
        </mxCell>
        <mxCell id="5JnU1e6QbsHb9adtHN5f-124" value="" style="shape=partialRectangle;html=1;whiteSpace=wrap;connectable=0;strokeColor=inherit;overflow=hidden;fillColor=none;top=0;left=0;bottom=0;right=0;pointerEvents=1;" vertex="1" parent="5JnU1e6QbsHb9adtHN5f-121">
          <mxGeometry x="271" width="136" height="50" as="geometry">
            <mxRectangle width="136" height="50" as="alternateBounds" />
          </mxGeometry>
        </mxCell>
        <mxCell id="5JnU1e6QbsHb9adtHN5f-125" value="" style="shape=partialRectangle;html=1;whiteSpace=wrap;connectable=0;strokeColor=inherit;overflow=hidden;fillColor=none;top=0;left=0;bottom=0;right=0;pointerEvents=1;" vertex="1" parent="5JnU1e6QbsHb9adtHN5f-121">
          <mxGeometry x="407" width="136" height="50" as="geometry">
            <mxRectangle width="136" height="50" as="alternateBounds" />
          </mxGeometry>
        </mxCell>
        <mxCell id="5JnU1e6QbsHb9adtHN5f-126" value="" style="shape=partialRectangle;html=1;whiteSpace=wrap;connectable=0;strokeColor=inherit;overflow=hidden;fillColor=none;top=0;left=0;bottom=0;right=0;pointerEvents=1;" vertex="1" parent="5JnU1e6QbsHb9adtHN5f-121">
          <mxGeometry x="543" width="136" height="50" as="geometry">
            <mxRectangle width="136" height="50" as="alternateBounds" />
          </mxGeometry>
        </mxCell>
        <mxCell id="5JnU1e6QbsHb9adtHN5f-127" value="" style="shape=partialRectangle;html=1;whiteSpace=wrap;connectable=0;strokeColor=inherit;overflow=hidden;fillColor=none;top=0;left=0;bottom=0;right=0;pointerEvents=1;" vertex="1" parent="5JnU1e6QbsHb9adtHN5f-121">
          <mxGeometry x="679" width="135" height="50" as="geometry">
            <mxRectangle width="135" height="50" as="alternateBounds" />
          </mxGeometry>
        </mxCell>
        <mxCell id="5JnU1e6QbsHb9adtHN5f-128" value="" style="shape=partialRectangle;html=1;whiteSpace=wrap;connectable=0;strokeColor=inherit;overflow=hidden;fillColor=none;top=0;left=0;bottom=0;right=0;pointerEvents=1;" vertex="1" parent="5JnU1e6QbsHb9adtHN5f-121">
          <mxGeometry x="814" width="136" height="50" as="geometry">
            <mxRectangle width="136" height="50" as="alternateBounds" />
          </mxGeometry>
        </mxCell>
        <mxCell id="5JnU1e6QbsHb9adtHN5f-129" value="" style="shape=tableRow;horizontal=0;startSize=0;swimlaneHead=0;swimlaneBody=0;strokeColor=inherit;top=0;left=0;bottom=0;right=0;collapsible=0;dropTarget=0;fillColor=none;points=[[0,0.5],[1,0.5]];portConstraint=eastwest;" vertex="1" parent="5JnU1e6QbsHb9adtHN5f-72">
          <mxGeometry y="350" width="950" height="50" as="geometry" />
        </mxCell>
        <mxCell id="5JnU1e6QbsHb9adtHN5f-130" value="&lt;span style=&quot;box-sizing: inherit; color: rgba(0, 0, 0, 0.85); font-family: &amp;quot;YS Text&amp;quot;, sans-serif; text-align: left; white-space-collapse: preserve-breaks; background-color: rgb(255, 255, 255);&quot;&gt;&lt;font style=&quot;&quot;&gt;Партнёрский кол-центр&lt;/font&gt;&lt;/span&gt;" style="shape=partialRectangle;html=1;whiteSpace=wrap;connectable=0;strokeColor=inherit;overflow=hidden;fillColor=none;top=0;left=0;bottom=0;right=0;pointerEvents=1;" vertex="1" parent="5JnU1e6QbsHb9adtHN5f-129">
          <mxGeometry width="136" height="50" as="geometry">
            <mxRectangle width="136" height="50" as="alternateBounds" />
          </mxGeometry>
        </mxCell>
        <mxCell id="5JnU1e6QbsHb9adtHN5f-131" value="" style="shape=partialRectangle;html=1;whiteSpace=wrap;connectable=0;strokeColor=inherit;overflow=hidden;fillColor=none;top=0;left=0;bottom=0;right=0;pointerEvents=1;" vertex="1" parent="5JnU1e6QbsHb9adtHN5f-129">
          <mxGeometry x="136" width="135" height="50" as="geometry">
            <mxRectangle width="135" height="50" as="alternateBounds" />
          </mxGeometry>
        </mxCell>
        <mxCell id="5JnU1e6QbsHb9adtHN5f-132" value="" style="shape=partialRectangle;html=1;whiteSpace=wrap;connectable=0;strokeColor=inherit;overflow=hidden;fillColor=none;top=0;left=0;bottom=0;right=0;pointerEvents=1;" vertex="1" parent="5JnU1e6QbsHb9adtHN5f-129">
          <mxGeometry x="271" width="136" height="50" as="geometry">
            <mxRectangle width="136" height="50" as="alternateBounds" />
          </mxGeometry>
        </mxCell>
        <mxCell id="5JnU1e6QbsHb9adtHN5f-133" value="" style="shape=partialRectangle;html=1;whiteSpace=wrap;connectable=0;strokeColor=inherit;overflow=hidden;fillColor=none;top=0;left=0;bottom=0;right=0;pointerEvents=1;" vertex="1" parent="5JnU1e6QbsHb9adtHN5f-129">
          <mxGeometry x="407" width="136" height="50" as="geometry">
            <mxRectangle width="136" height="50" as="alternateBounds" />
          </mxGeometry>
        </mxCell>
        <mxCell id="5JnU1e6QbsHb9adtHN5f-134" value="" style="shape=partialRectangle;html=1;whiteSpace=wrap;connectable=0;strokeColor=inherit;overflow=hidden;fillColor=none;top=0;left=0;bottom=0;right=0;pointerEvents=1;" vertex="1" parent="5JnU1e6QbsHb9adtHN5f-129">
          <mxGeometry x="543" width="136" height="50" as="geometry">
            <mxRectangle width="136" height="50" as="alternateBounds" />
          </mxGeometry>
        </mxCell>
        <mxCell id="5JnU1e6QbsHb9adtHN5f-135" value="" style="shape=partialRectangle;html=1;whiteSpace=wrap;connectable=0;strokeColor=inherit;overflow=hidden;fillColor=none;top=0;left=0;bottom=0;right=0;pointerEvents=1;" vertex="1" parent="5JnU1e6QbsHb9adtHN5f-129">
          <mxGeometry x="679" width="135" height="50" as="geometry">
            <mxRectangle width="135" height="50" as="alternateBounds" />
          </mxGeometry>
        </mxCell>
        <mxCell id="5JnU1e6QbsHb9adtHN5f-136" value="" style="shape=partialRectangle;html=1;whiteSpace=wrap;connectable=0;strokeColor=inherit;overflow=hidden;fillColor=none;top=0;left=0;bottom=0;right=0;pointerEvents=1;" vertex="1" parent="5JnU1e6QbsHb9adtHN5f-129">
          <mxGeometry x="814" width="136" height="50" as="geometry">
            <mxRectangle width="136" height="50" as="alternateBounds" />
          </mxGeometry>
        </mxCell>
        <mxCell id="5JnU1e6QbsHb9adtHN5f-137" value="&lt;span style=&quot;box-sizing: inherit; color: rgba(0, 0, 0, 0.85); font-family: &amp;quot;YS Text&amp;quot;, sans-serif; text-align: left; white-space-collapse: preserve-breaks; background-color: rgb(255, 255, 255);&quot;&gt;&lt;font style=&quot;&quot;&gt;Система кол-центра&lt;/font&gt;&lt;/span&gt;" style="rounded=1;whiteSpace=wrap;html=1;" vertex="1" parent="1">
          <mxGeometry x="180" y="430" width="130" height="50" as="geometry" />
        </mxCell>
        <mxCell id="5JnU1e6QbsHb9adtHN5f-138" value="&lt;span style=&quot;box-sizing: inherit; color: rgba(0, 0, 0, 0.85); font-family: &amp;quot;YS Text&amp;quot;, sans-serif; text-align: left; white-space-collapse: preserve-breaks; background-color: rgb(255, 255, 255);&quot;&gt;&lt;font style=&quot;&quot;&gt;Система партнёрского кол-центра&lt;/font&gt;&lt;/span&gt;" style="rounded=1;whiteSpace=wrap;html=1;" vertex="1" parent="1">
          <mxGeometry x="180" y="480" width="130" height="50" as="geometry" />
        </mxCell>
        <mxCell id="5JnU1e6QbsHb9adtHN5f-139" value="&lt;span style=&quot;box-sizing: inherit; color: rgba(0, 0, 0, 0.85); font-family: &amp;quot;YS Text&amp;quot;, sans-serif; text-align: left; white-space-collapse: preserve-breaks; background-color: rgb(255, 255, 255);&quot;&gt;&lt;font style=&quot;&quot;&gt;Автоматизированная &lt;br&gt;банковская &lt;br/&gt;система (АБС)&lt;/font&gt;&lt;/span&gt;" style="rounded=1;whiteSpace=wrap;html=1;" vertex="1" parent="1">
          <mxGeometry x="310" y="180" width="680" height="200" as="geometry" />
        </mxCell>
        <mxCell id="5JnU1e6QbsHb9adtHN5f-140" value="&lt;span style=&quot;box-sizing: inherit; color: rgba(0, 0, 0, 0.85); font-family: &amp;quot;YS Text&amp;quot;, sans-serif; text-align: left; white-space-collapse: preserve-breaks; background-color: rgb(255, 255, 255);&quot;&gt;&lt;font style=&quot;&quot;&gt;СМС-шлюз телеком-оператора&lt;/font&gt;&lt;/span&gt;" style="rounded=1;whiteSpace=wrap;html=1;" vertex="1" parent="1">
          <mxGeometry x="450" y="180" width="125" height="250" as="geometry" />
        </mxCell>
        <mxCell id="5JnU1e6QbsHb9adtHN5f-141" value="Сайт" style="rounded=1;whiteSpace=wrap;html=1;" vertex="1" parent="1">
          <mxGeometry x="930" y="230" width="60" height="200" as="geometry" />
        </mxCell>
        <mxCell id="5JnU1e6QbsHb9adtHN5f-142" value="Интернет-банк" style="rounded=1;whiteSpace=wrap;html=1;" vertex="1" parent="1">
          <mxGeometry x="860" y="230" width="60" height="200" as="geometry" />
        </mxCell>
      </root>
    </mxGraphModel>
  </diagram>
</mxfile>
